<?xml version="1.0" encoding="utf-8"?>
<!-- Generator: Adobe Illustrator 24.0.1, SVG Export Plug-In . SVG Version: 6.00 Build 0)  -->
<svg version="1.1" id="Layer_1" xmlns="http://www.w3.org/2000/svg" xmlns:xlink="http://www.w3.org/1999/xlink" x="0px" y="0px"
	 width="15px" height="15px" viewBox="0 0 15 15" enable-background="new 0 0 15 15" xml:space="preserve">
<g>
	<polygon fill="#293519" points="4,1 4,2.5 5,3.5 7,4 7.5,3.5 7,2.5 6,1.5 	"/>
	<polygon fill="none" stroke="#1D2514" stroke-linecap="round" stroke-linejoin="round" stroke-miterlimit="10" points="4,1 4,2.5 
		5,3.5 7,4 7.5,3.5 7,2.5 6,1.5 	"/>
</g>
<line fill="none" stroke="#91673D" stroke-linecap="round" stroke-linejoin="round" stroke-miterlimit="10" x1="7.5" y1="3" x2="7.5" y2="1"/>
<polygon fill="#9E3021" points="10.5,14 11.5,13 12.5,11 13.5,9 13.5,5 11.5,3 9.5,3 7.5,4 5.5,3 3.5,3 1.5,5 1.5,9 2.5,11 3.5,13 
	4.5,14 6.5,14 7.5,13 8.5,14 "/>
<polygon fill="none" stroke="#882E1B" stroke-linecap="round" stroke-linejoin="round" stroke-miterlimit="10" points="10.5,14 
	11.5,13 12.5,11 13.5,9 13.5,5 11.5,3 9.5,3 7.5,4 5.5,3 3.5,3 1.5,5 1.5,9 2.5,11 3.5,13 4.5,14 6.5,14 7.5,13 8.5,14 "/>
<polygon fill="none" stroke="#D7952A" stroke-linecap="round" stroke-linejoin="round" stroke-miterlimit="10" points="9,6.5 8.5,7 
	8.5,8 9,8.5 9.5,8.5 10,8 10.5,7.5 10.5,7 10,6.5 "/>
<line fill="none" stroke="#D7952A" stroke-linecap="round" stroke-linejoin="round" stroke-miterlimit="10" x1="9.5" y1="6" x2="9.5" y2="5"/>
<line fill="none" stroke="#D7952A" stroke-linecap="round" stroke-linejoin="round" stroke-miterlimit="10" x1="8" y1="6.5" x2="7" y2="5.5"/>
<line fill="none" stroke="#D7952A" stroke-linecap="round" stroke-linejoin="round" stroke-miterlimit="10" x1="11" y1="7" x2="12" y2="6"/>
<line fill="none" stroke="#D7952A" stroke-linecap="round" stroke-linejoin="round" stroke-miterlimit="10" x1="10.5" y1="8.5" x2="11.5" y2="9.5"/>
<line fill="none" stroke="#D7952A" stroke-linecap="round" stroke-linejoin="round" stroke-miterlimit="10" x1="9" y1="9" x2="8.5" y2="10.5"/>
<line fill="none" stroke="#D7952A" stroke-linecap="round" stroke-linejoin="round" stroke-miterlimit="10" x1="8" y1="8" x2="7" y2="8.5"/>
<line fill="none" stroke="#D7952A" stroke-linecap="round" stroke-linejoin="round" stroke-miterlimit="10" x1="5" y1="10.5" x2="6" y2="12.5"/>
<rect x="3.5" y="5.5" fill="none" stroke="#D7952A" stroke-linecap="round" stroke-linejoin="round" stroke-miterlimit="10" width="0.5" height="0.5"/>
<line fill="none" stroke="#D7952A" stroke-linecap="round" stroke-linejoin="round" stroke-miterlimit="10" x1="5" y1="12" x2="6.5" y2="10.5"/>
</svg>
