<?xml version="1.0" encoding="utf-8"?>
<!-- Generator: Adobe Illustrator 24.0.1, SVG Export Plug-In . SVG Version: 6.00 Build 0)  -->
<svg version="1.1" id="Layer_1" xmlns="http://www.w3.org/2000/svg" xmlns:xlink="http://www.w3.org/1999/xlink" x="0px" y="0px"
	 width="15px" height="15px" viewBox="0 0 15 15" enable-background="new 0 0 15 15" xml:space="preserve">
<polygon fill="none" stroke="#C39B6D" stroke-linecap="round" stroke-linejoin="round" stroke-miterlimit="10" points="9,9.5 12,13 
	12,14 13,14 13,13 14,13 14,12 13,12 10,9 "/>
<polygon fill="#C49B6D" points="9,9.5 12,13 12,14 13,14 13,13 14,13 14,12 13,12 10,9 "/>
<polygon fill="none" stroke="#91673D" stroke-linecap="round" stroke-linejoin="round" stroke-miterlimit="10" points="10.5,7 
	9.5,4.5 8.5,2.5 7,1.5 5,1 3,1 1,3 1,5 2,7.5 4,9 7,10 10,11 11,10 "/>
<polygon fill="#91673D" points="10.5,7 9.5,4.5 8.5,2.5 7,1.5 5,1 3,1 1,3 1,5 2,7.5 4,9 7,10 10,11 11,10 "/>
<rect x="7.4" y="3.6" transform="matrix(0.7515 -0.6597 0.6597 0.7515 -0.6415 6.0024)" fill="none" stroke="#A57F5D" stroke-linecap="round" stroke-linejoin="round" stroke-miterlimit="10" width="0.5" height="0.5"/>
<polygon fill="none" stroke="#A57F5D" stroke-linecap="round" stroke-linejoin="round" stroke-miterlimit="10" points="4.85,2 
	4.44,2.58 6.1,3.3 6.5,2.72 "/>
</svg>
