<?xml version="1.0" encoding="utf-8"?>
<!-- Generator: Adobe Illustrator 24.0.1, SVG Export Plug-In . SVG Version: 6.00 Build 0)  -->
<svg version="1.1" id="Layer_1" xmlns="http://www.w3.org/2000/svg" xmlns:xlink="http://www.w3.org/1999/xlink" x="0px" y="0px"
	 width="15px" height="15px" viewBox="0 0 15 15" enable-background="new 0 0 15 15" xml:space="preserve">
<polygon fill="#D87E32" points="11,2 9,1 6,1 4,2 2,4 1,6 1,8 2,11 4,13 6,14 9,14 11,13 13,11 14,9 14,6 13,4 "/>
<polygon fill="#93562C" points="8.58,5.81 7.96,5.5 7.04,5.5 6.42,5.81 5.81,6.42 5.5,7.04 5.5,7.65 5.81,8.58 6.42,9.19 7.04,9.5 
	7.96,9.5 8.58,9.19 9.19,8.58 9.5,7.96 9.5,7.04 9.19,6.42 "/>
<path fill="none" stroke="#C47229" stroke-miterlimit="10" d="M5.05,7.05c0,0,1.64-1.23,2.05-2.05"/>
<path fill="none" stroke="#C47229" stroke-miterlimit="10" d="M4.64,6.23c0,0,0.82,1.23,1.23,2.86c0,0,1.23,0,2.86,0.41
	c0,0,0-1.23,1.23-2.05"/>
<path fill="none" stroke="#C47229" stroke-miterlimit="10" d="M6.68,5c0,0,0.82,0.82,2.45,0.82"/>
<path fill="none" stroke="#C47229" stroke-miterlimit="10" d="M9.14,5c0,0,0,2.45,1.23,2.86"/>
<polygon fill="none" stroke="#C47229" stroke-linecap="round" stroke-linejoin="round" stroke-miterlimit="10" points="1,8 2,11 
	4,13 6,14 9,14 11,13 13,11 14,9 14,6 13,4 11,2 9,1 6,1 4,2 2,4 1,6 "/>
<path fill="none" stroke="#E8A577" stroke-miterlimit="10" d="M8.5,2.5c0,0,1.5,0,2,1"/>
<line fill="none" stroke="#E8A577" stroke-miterlimit="10" x1="10.78" y1="4" x2="11" y2="4.67"/>
<path fill="none" stroke="#E8A577" stroke-miterlimit="10" d="M6.32,11c0,0-1.58-0.12-1.82-1.09"/>
<line fill="none" stroke="#E8A577" stroke-miterlimit="10" x1="4.32" y1="9.5" x2="4" y2="8.55"/>
</svg>
